<mxfile host="app.diagrams.net" agent="Mozilla/5.0 (X11; Linux x86_64; rv:141.0) Gecko/20100101 Firefox/141.0" version="28.1.1">
  <diagram name="Page-1" id="cYD6wkqurYSxZF7bzhAe">
    <mxGraphModel dx="1540" dy="880" grid="1" gridSize="10" guides="1" tooltips="1" connect="1" arrows="1" fold="1" page="1" pageScale="1" pageWidth="827" pageHeight="1169" math="0" shadow="0">
      <root>
        <mxCell id="0" />
        <mxCell id="1" parent="0" />
        <mxCell id="S5UgDc_ne-7NMKF8tWiN-40" value="" style="endArrow=none;html=1;rounded=0;strokeColor=default;align=center;verticalAlign=middle;fontFamily=Helvetica;fontSize=12;fontColor=default;labelBackgroundColor=none;startSize=5;endSize=5;entryX=0.5;entryY=1;entryDx=0;entryDy=0;opacity=50;dashed=1;" edge="1" parent="1" target="S5UgDc_ne-7NMKF8tWiN-20">
          <mxGeometry width="50" height="50" relative="1" as="geometry">
            <mxPoint x="680" y="460" as="sourcePoint" />
            <mxPoint x="679.66" y="80" as="targetPoint" />
          </mxGeometry>
        </mxCell>
        <mxCell id="S5UgDc_ne-7NMKF8tWiN-43" value="" style="endArrow=none;html=1;rounded=0;strokeColor=default;align=center;verticalAlign=middle;fontFamily=Helvetica;fontSize=12;fontColor=default;labelBackgroundColor=none;startSize=5;endSize=5;entryX=0.5;entryY=1;entryDx=0;entryDy=0;opacity=50;dashed=1;" edge="1" parent="1" target="S5UgDc_ne-7NMKF8tWiN-31">
          <mxGeometry width="50" height="50" relative="1" as="geometry">
            <mxPoint x="1160" y="460" as="sourcePoint" />
            <mxPoint x="1130" y="330" as="targetPoint" />
          </mxGeometry>
        </mxCell>
        <mxCell id="S5UgDc_ne-7NMKF8tWiN-42" value="" style="endArrow=none;html=1;rounded=0;strokeColor=default;align=center;verticalAlign=middle;fontFamily=Helvetica;fontSize=12;fontColor=default;labelBackgroundColor=none;startSize=5;endSize=5;entryX=0.5;entryY=1;entryDx=0;entryDy=0;opacity=50;dashed=1;" edge="1" parent="1" source="S5UgDc_ne-7NMKF8tWiN-28" target="S5UgDc_ne-7NMKF8tWiN-29">
          <mxGeometry width="50" height="50" relative="1" as="geometry">
            <mxPoint x="1000" y="460" as="sourcePoint" />
            <mxPoint x="999.5799999999999" y="260" as="targetPoint" />
          </mxGeometry>
        </mxCell>
        <mxCell id="S5UgDc_ne-7NMKF8tWiN-41" value="" style="endArrow=none;html=1;rounded=0;strokeColor=default;align=center;verticalAlign=middle;fontFamily=Helvetica;fontSize=12;fontColor=default;labelBackgroundColor=none;startSize=5;endSize=5;entryX=0.5;entryY=1;entryDx=0;entryDy=0;opacity=50;dashed=1;" edge="1" parent="1" target="S5UgDc_ne-7NMKF8tWiN-23">
          <mxGeometry width="50" height="50" relative="1" as="geometry">
            <mxPoint x="840" y="460" as="sourcePoint" />
            <mxPoint x="850.34" y="90" as="targetPoint" />
          </mxGeometry>
        </mxCell>
        <mxCell id="S5UgDc_ne-7NMKF8tWiN-39" value="" style="endArrow=none;html=1;rounded=0;strokeColor=default;align=center;verticalAlign=middle;fontFamily=Helvetica;fontSize=12;fontColor=default;labelBackgroundColor=none;startSize=5;endSize=5;entryX=0.5;entryY=1;entryDx=0;entryDy=0;opacity=50;dashed=1;" edge="1" parent="1" target="S5UgDc_ne-7NMKF8tWiN-19">
          <mxGeometry width="50" height="50" relative="1" as="geometry">
            <mxPoint x="520" y="460" as="sourcePoint" />
            <mxPoint x="400" y="150" as="targetPoint" />
          </mxGeometry>
        </mxCell>
        <mxCell id="S5UgDc_ne-7NMKF8tWiN-38" value="" style="endArrow=none;html=1;rounded=0;strokeColor=default;align=center;verticalAlign=middle;fontFamily=Helvetica;fontSize=12;fontColor=default;labelBackgroundColor=none;startSize=5;endSize=5;entryX=0.5;entryY=1;entryDx=0;entryDy=0;opacity=50;dashed=1;" edge="1" parent="1" target="S5UgDc_ne-7NMKF8tWiN-18">
          <mxGeometry width="50" height="50" relative="1" as="geometry">
            <mxPoint x="360" y="460" as="sourcePoint" />
            <mxPoint x="359.65999999999997" y="88.8" as="targetPoint" />
          </mxGeometry>
        </mxCell>
        <mxCell id="S5UgDc_ne-7NMKF8tWiN-37" value="" style="endArrow=none;html=1;rounded=0;strokeColor=default;align=center;verticalAlign=middle;fontFamily=Helvetica;fontSize=12;fontColor=default;labelBackgroundColor=none;startSize=5;endSize=5;entryX=0.5;entryY=1;entryDx=0;entryDy=0;opacity=50;dashed=1;" edge="1" parent="1" target="S5UgDc_ne-7NMKF8tWiN-16">
          <mxGeometry width="50" height="50" relative="1" as="geometry">
            <mxPoint x="200" y="460" as="sourcePoint" />
            <mxPoint x="280" y="100" as="targetPoint" />
          </mxGeometry>
        </mxCell>
        <mxCell id="S5UgDc_ne-7NMKF8tWiN-1" value="&lt;font data-font-src=&quot;https://fonts.googleapis.com/css?family=Inter&quot; face=&quot;Inter&quot;&gt;Actualizar tiempo&lt;/font&gt;" style="rounded=0;whiteSpace=wrap;html=1;" vertex="1" parent="1">
          <mxGeometry x="140" y="140" width="120" height="40" as="geometry" />
        </mxCell>
        <mxCell id="S5UgDc_ne-7NMKF8tWiN-35" style="edgeStyle=none;shape=connector;rounded=0;orthogonalLoop=1;jettySize=auto;html=1;entryX=0;entryY=0.5;entryDx=0;entryDy=0;strokeColor=default;align=center;verticalAlign=middle;fontFamily=Helvetica;fontSize=12;fontColor=default;labelBackgroundColor=none;startSize=5;endArrow=classic;endSize=5;exitX=1;exitY=0.5;exitDx=0;exitDy=0;" edge="1" parent="1" source="S5UgDc_ne-7NMKF8tWiN-2" target="S5UgDc_ne-7NMKF8tWiN-34">
          <mxGeometry relative="1" as="geometry" />
        </mxCell>
        <mxCell id="S5UgDc_ne-7NMKF8tWiN-2" value="&lt;div&gt;&lt;font face=&quot;Inter&quot;&gt;Gestionar menÃº&amp;nbsp;temporizado&amp;nbsp;&lt;/font&gt;&lt;/div&gt;&lt;div&gt;&lt;font face=&quot;Inter&quot;&gt;(si es necesario)&lt;/font&gt;&lt;/div&gt;" style="rounded=0;whiteSpace=wrap;html=1;" vertex="1" parent="1">
          <mxGeometry x="140" y="200" width="120" height="60" as="geometry" />
        </mxCell>
        <mxCell id="S5UgDc_ne-7NMKF8tWiN-3" value="&lt;font face=&quot;Inter&quot;&gt;Siguiente evento&lt;/font&gt;" style="rounded=0;whiteSpace=wrap;html=1;" vertex="1" parent="1">
          <mxGeometry x="140" y="280" width="120" height="40" as="geometry" />
        </mxCell>
        <mxCell id="S5UgDc_ne-7NMKF8tWiN-4" value="" style="endArrow=classic;html=1;rounded=0;fontFamily=Helvetica;fontSize=12;fontColor=default;exitX=0.5;exitY=1;exitDx=0;exitDy=0;endFill=1;endSize=5;entryX=0.5;entryY=0;entryDx=0;entryDy=0;" edge="1" parent="1" source="S5UgDc_ne-7NMKF8tWiN-3" target="S5UgDc_ne-7NMKF8tWiN-1">
          <mxGeometry width="50" height="50" relative="1" as="geometry">
            <mxPoint x="200" y="380" as="sourcePoint" />
            <mxPoint x="200" y="350" as="targetPoint" />
            <Array as="points">
              <mxPoint x="200" y="340" />
              <mxPoint x="80" y="340" />
              <mxPoint x="80" y="110" />
              <mxPoint x="200" y="110" />
            </Array>
          </mxGeometry>
        </mxCell>
        <mxCell id="S5UgDc_ne-7NMKF8tWiN-6" value="" style="endArrow=classic;html=1;rounded=0;strokeColor=default;align=center;verticalAlign=middle;fontFamily=Helvetica;fontSize=12;fontColor=default;labelBackgroundColor=default;endSize=5;startSize=5;exitX=0.5;exitY=1;exitDx=0;exitDy=0;entryX=0.5;entryY=0;entryDx=0;entryDy=0;" edge="1" parent="1" source="S5UgDc_ne-7NMKF8tWiN-1" target="S5UgDc_ne-7NMKF8tWiN-2">
          <mxGeometry width="50" height="50" relative="1" as="geometry">
            <mxPoint x="340" y="190" as="sourcePoint" />
            <mxPoint x="390" y="140" as="targetPoint" />
          </mxGeometry>
        </mxCell>
        <mxCell id="S5UgDc_ne-7NMKF8tWiN-7" value="" style="endArrow=classic;html=1;rounded=0;strokeColor=default;align=center;verticalAlign=middle;fontFamily=Helvetica;fontSize=12;fontColor=default;labelBackgroundColor=default;endSize=5;startSize=5;exitX=0.5;exitY=1;exitDx=0;exitDy=0;entryX=0.5;entryY=0;entryDx=0;entryDy=0;" edge="1" parent="1" source="S5UgDc_ne-7NMKF8tWiN-2" target="S5UgDc_ne-7NMKF8tWiN-3">
          <mxGeometry width="50" height="50" relative="1" as="geometry">
            <mxPoint x="240" y="190" as="sourcePoint" />
            <mxPoint x="240" y="220" as="targetPoint" />
          </mxGeometry>
        </mxCell>
        <mxCell id="S5UgDc_ne-7NMKF8tWiN-9" value="" style="endArrow=classic;html=1;rounded=0;strokeColor=default;align=center;verticalAlign=middle;fontFamily=Helvetica;fontSize=12;fontColor=default;labelBackgroundColor=default;startSize=5;endSize=5;exitX=1;exitY=0.5;exitDx=0;exitDy=0;entryX=0;entryY=0.5;entryDx=0;entryDy=0;" edge="1" parent="1" source="S5UgDc_ne-7NMKF8tWiN-3" target="S5UgDc_ne-7NMKF8tWiN-10">
          <mxGeometry width="50" height="50" relative="1" as="geometry">
            <mxPoint x="390" y="300" as="sourcePoint" />
            <mxPoint x="360" y="300" as="targetPoint" />
          </mxGeometry>
        </mxCell>
        <mxCell id="S5UgDc_ne-7NMKF8tWiN-13" style="edgeStyle=none;shape=connector;rounded=0;orthogonalLoop=1;jettySize=auto;html=1;entryX=0;entryY=0.5;entryDx=0;entryDy=0;strokeColor=default;align=center;verticalAlign=middle;fontFamily=Helvetica;fontSize=12;fontColor=default;labelBackgroundColor=default;startSize=5;endArrow=classic;endSize=5;exitX=1;exitY=0.25;exitDx=0;exitDy=0;" edge="1" parent="1" source="S5UgDc_ne-7NMKF8tWiN-10" target="S5UgDc_ne-7NMKF8tWiN-12">
          <mxGeometry relative="1" as="geometry" />
        </mxCell>
        <mxCell id="S5UgDc_ne-7NMKF8tWiN-15" style="edgeStyle=none;shape=connector;rounded=0;orthogonalLoop=1;jettySize=auto;html=1;entryX=0;entryY=0.5;entryDx=0;entryDy=0;strokeColor=default;align=center;verticalAlign=middle;fontFamily=Helvetica;fontSize=12;fontColor=default;labelBackgroundColor=default;startSize=5;endArrow=classic;endSize=5;exitX=1;exitY=0.5;exitDx=0;exitDy=0;" edge="1" parent="1" source="S5UgDc_ne-7NMKF8tWiN-10" target="S5UgDc_ne-7NMKF8tWiN-14">
          <mxGeometry relative="1" as="geometry">
            <mxPoint x="483" y="306" as="sourcePoint" />
          </mxGeometry>
        </mxCell>
        <mxCell id="S5UgDc_ne-7NMKF8tWiN-22" style="edgeStyle=none;shape=connector;rounded=0;orthogonalLoop=1;jettySize=auto;html=1;entryX=0;entryY=0.5;entryDx=0;entryDy=0;strokeColor=default;align=center;verticalAlign=middle;fontFamily=Helvetica;fontSize=12;fontColor=default;labelBackgroundColor=none;startSize=5;endArrow=classic;endSize=5;exitX=1;exitY=0.75;exitDx=0;exitDy=0;" edge="1" parent="1" source="S5UgDc_ne-7NMKF8tWiN-10" target="S5UgDc_ne-7NMKF8tWiN-21">
          <mxGeometry relative="1" as="geometry" />
        </mxCell>
        <mxCell id="S5UgDc_ne-7NMKF8tWiN-10" value="&lt;font face=&quot;Inter&quot;&gt;Gestionar evento&lt;/font&gt;" style="rounded=0;whiteSpace=wrap;html=1;" vertex="1" parent="1">
          <mxGeometry x="300" y="280" width="120" height="40" as="geometry" />
        </mxCell>
        <mxCell id="S5UgDc_ne-7NMKF8tWiN-25" style="edgeStyle=none;shape=connector;rounded=0;orthogonalLoop=1;jettySize=auto;html=1;entryX=0;entryY=0.5;entryDx=0;entryDy=0;strokeColor=default;align=center;verticalAlign=middle;fontFamily=Helvetica;fontSize=12;fontColor=default;labelBackgroundColor=none;startSize=5;endArrow=classic;endSize=5;exitX=1;exitY=0.5;exitDx=0;exitDy=0;" edge="1" parent="1" source="S5UgDc_ne-7NMKF8tWiN-12" target="S5UgDc_ne-7NMKF8tWiN-24">
          <mxGeometry relative="1" as="geometry" />
        </mxCell>
        <mxCell id="S5UgDc_ne-7NMKF8tWiN-12" value="&lt;font face=&quot;Inter&quot;&gt;Mover cursor&lt;/font&gt;" style="rounded=0;whiteSpace=wrap;html=1;" vertex="1" parent="1">
          <mxGeometry x="460" y="210" width="120" height="40" as="geometry" />
        </mxCell>
        <mxCell id="S5UgDc_ne-7NMKF8tWiN-27" style="edgeStyle=none;shape=connector;rounded=0;orthogonalLoop=1;jettySize=auto;html=1;entryX=0;entryY=0.5;entryDx=0;entryDy=0;strokeColor=default;align=center;verticalAlign=middle;fontFamily=Helvetica;fontSize=12;fontColor=default;labelBackgroundColor=none;startSize=5;endArrow=classic;endSize=5;exitX=1;exitY=0.5;exitDx=0;exitDy=0;" edge="1" parent="1" source="S5UgDc_ne-7NMKF8tWiN-14" target="S5UgDc_ne-7NMKF8tWiN-26">
          <mxGeometry relative="1" as="geometry">
            <mxPoint x="650" y="300" as="sourcePoint" />
          </mxGeometry>
        </mxCell>
        <mxCell id="S5UgDc_ne-7NMKF8tWiN-14" value="&lt;font face=&quot;Inter&quot;&gt;Seleccionar&lt;/font&gt;" style="rounded=0;whiteSpace=wrap;html=1;" vertex="1" parent="1">
          <mxGeometry x="460" y="280" width="120" height="40" as="geometry" />
        </mxCell>
        <mxCell id="S5UgDc_ne-7NMKF8tWiN-16" value="&lt;font face=&quot;Inter&quot;&gt;PWM_BOX&lt;/font&gt;" style="text;html=1;align=center;verticalAlign=middle;whiteSpace=wrap;rounded=0;fontFamily=Helvetica;fontSize=12;fontColor=default;labelBackgroundColor=none;" vertex="1" parent="1">
          <mxGeometry x="140" y="40" width="120" height="40" as="geometry" />
        </mxCell>
        <mxCell id="S5UgDc_ne-7NMKF8tWiN-18" value="&lt;font face=&quot;Inter&quot;&gt;event_control&lt;/font&gt;" style="text;html=1;align=center;verticalAlign=middle;whiteSpace=wrap;rounded=0;fontFamily=Helvetica;fontSize=12;fontColor=default;labelBackgroundColor=none;" vertex="1" parent="1">
          <mxGeometry x="300" y="40" width="120" height="40" as="geometry" />
        </mxCell>
        <mxCell id="S5UgDc_ne-7NMKF8tWiN-19" value="&lt;font face=&quot;Inter&quot;&gt;menu_control&lt;/font&gt;" style="text;html=1;align=center;verticalAlign=middle;whiteSpace=wrap;rounded=0;fontFamily=Helvetica;fontSize=12;fontColor=default;labelBackgroundColor=none;" vertex="1" parent="1">
          <mxGeometry x="460" y="40" width="120" height="40" as="geometry" />
        </mxCell>
        <mxCell id="S5UgDc_ne-7NMKF8tWiN-20" value="&lt;font face=&quot;Inter&quot;&gt;serial_control&lt;/font&gt;" style="text;html=1;align=center;verticalAlign=middle;whiteSpace=wrap;rounded=0;fontFamily=Helvetica;fontSize=12;fontColor=default;labelBackgroundColor=none;" vertex="1" parent="1">
          <mxGeometry x="620" y="40" width="120" height="40" as="geometry" />
        </mxCell>
        <mxCell id="S5UgDc_ne-7NMKF8tWiN-21" value="&lt;font face=&quot;Inter&quot;&gt;Procesar mensaje&lt;/font&gt;" style="rounded=0;whiteSpace=wrap;html=1;" vertex="1" parent="1">
          <mxGeometry x="620" y="400" width="120" height="40" as="geometry" />
        </mxCell>
        <mxCell id="S5UgDc_ne-7NMKF8tWiN-23" value="&lt;font face=&quot;Inter&quot;&gt;..._menu&lt;/font&gt;" style="text;html=1;align=center;verticalAlign=middle;whiteSpace=wrap;rounded=0;fontFamily=Helvetica;fontSize=12;fontColor=default;labelBackgroundColor=none;" vertex="1" parent="1">
          <mxGeometry x="780" y="40" width="120" height="40" as="geometry" />
        </mxCell>
        <mxCell id="S5UgDc_ne-7NMKF8tWiN-24" value="&lt;div&gt;&lt;font face=&quot;Inter&quot;&gt;Mover cursor&lt;/font&gt;&lt;/div&gt;&lt;div&gt;&lt;font face=&quot;Inter&quot;&gt;(como corresponda)&lt;/font&gt;&lt;/div&gt;" style="rounded=0;whiteSpace=wrap;html=1;" vertex="1" parent="1">
          <mxGeometry x="780" y="140" width="120" height="40" as="geometry" />
        </mxCell>
        <mxCell id="S5UgDc_ne-7NMKF8tWiN-30" style="edgeStyle=none;shape=connector;rounded=0;orthogonalLoop=1;jettySize=auto;html=1;entryX=0;entryY=0.5;entryDx=0;entryDy=0;strokeColor=default;align=center;verticalAlign=middle;fontFamily=Helvetica;fontSize=12;fontColor=default;labelBackgroundColor=none;startSize=5;endArrow=classic;endSize=5;exitX=1;exitY=0.25;exitDx=0;exitDy=0;" edge="1" parent="1" source="S5UgDc_ne-7NMKF8tWiN-26" target="S5UgDc_ne-7NMKF8tWiN-28">
          <mxGeometry relative="1" as="geometry" />
        </mxCell>
        <mxCell id="S5UgDc_ne-7NMKF8tWiN-33" style="edgeStyle=none;shape=connector;rounded=0;orthogonalLoop=1;jettySize=auto;html=1;entryX=0;entryY=0.5;entryDx=0;entryDy=0;strokeColor=default;align=center;verticalAlign=middle;fontFamily=Helvetica;fontSize=12;fontColor=default;labelBackgroundColor=none;startSize=5;endArrow=classic;endSize=5;exitX=1;exitY=0.75;exitDx=0;exitDy=0;" edge="1" parent="1" source="S5UgDc_ne-7NMKF8tWiN-26" target="S5UgDc_ne-7NMKF8tWiN-32">
          <mxGeometry relative="1" as="geometry" />
        </mxCell>
        <mxCell id="S5UgDc_ne-7NMKF8tWiN-26" value="&lt;font face=&quot;Inter&quot;&gt;(Realizar acciÃ³n correspondiente)&lt;/font&gt;" style="rounded=0;whiteSpace=wrap;html=1;" vertex="1" parent="1">
          <mxGeometry x="780" y="210" width="120" height="40" as="geometry" />
        </mxCell>
        <mxCell id="S5UgDc_ne-7NMKF8tWiN-29" value="&lt;font face=&quot;Inter&quot;&gt;eeprom_control&lt;/font&gt;" style="text;html=1;align=center;verticalAlign=middle;whiteSpace=wrap;rounded=0;fontFamily=Helvetica;fontSize=12;fontColor=default;labelBackgroundColor=none;" vertex="1" parent="1">
          <mxGeometry x="940" y="40" width="120" height="40" as="geometry" />
        </mxCell>
        <mxCell id="S5UgDc_ne-7NMKF8tWiN-31" value="&lt;font face=&quot;Inter&quot;&gt;virtual_pwm&lt;/font&gt;" style="text;html=1;align=center;verticalAlign=middle;whiteSpace=wrap;rounded=0;fontFamily=Helvetica;fontSize=12;fontColor=default;labelBackgroundColor=none;" vertex="1" parent="1">
          <mxGeometry x="1100" y="40" width="120" height="40" as="geometry" />
        </mxCell>
        <mxCell id="S5UgDc_ne-7NMKF8tWiN-32" value="&lt;font face=&quot;Inter&quot;&gt;Cambiar parÃ¡metros&lt;/font&gt;" style="rounded=0;whiteSpace=wrap;html=1;" vertex="1" parent="1">
          <mxGeometry x="1100" y="210" width="120" height="40" as="geometry" />
        </mxCell>
        <mxCell id="S5UgDc_ne-7NMKF8tWiN-34" value="&lt;font face=&quot;Inter&quot;&gt;Cambiar menÃº&lt;/font&gt;" style="rounded=0;whiteSpace=wrap;html=1;" vertex="1" parent="1">
          <mxGeometry x="460" y="140" width="120" height="40" as="geometry" />
        </mxCell>
        <mxCell id="S5UgDc_ne-7NMKF8tWiN-44" value="" style="endArrow=none;html=1;rounded=0;strokeColor=default;align=center;verticalAlign=middle;fontFamily=Helvetica;fontSize=12;fontColor=default;labelBackgroundColor=none;startSize=5;endSize=5;entryX=0.5;entryY=1;entryDx=0;entryDy=0;opacity=50;dashed=1;" edge="1" parent="1" target="S5UgDc_ne-7NMKF8tWiN-28">
          <mxGeometry width="50" height="50" relative="1" as="geometry">
            <mxPoint x="1000" y="460" as="sourcePoint" />
            <mxPoint x="1000" y="80" as="targetPoint" />
          </mxGeometry>
        </mxCell>
        <mxCell id="S5UgDc_ne-7NMKF8tWiN-28" value="&lt;font face=&quot;Inter&quot;&gt;Guardar / cargar perfil&lt;/font&gt;" style="rounded=0;whiteSpace=wrap;html=1;" vertex="1" parent="1">
          <mxGeometry x="940" y="140" width="120" height="40" as="geometry" />
        </mxCell>
        <mxCell id="S5UgDc_ne-7NMKF8tWiN-45" style="edgeStyle=none;shape=connector;rounded=0;orthogonalLoop=1;jettySize=auto;html=1;entryX=1;entryY=0.5;entryDx=0;entryDy=0;strokeColor=default;align=center;verticalAlign=middle;fontFamily=Helvetica;fontSize=12;fontColor=default;labelBackgroundColor=none;startSize=5;endArrow=classic;endSize=5;" edge="1" parent="1" source="S5UgDc_ne-7NMKF8tWiN-2" target="S5UgDc_ne-7NMKF8tWiN-2">
          <mxGeometry relative="1" as="geometry" />
        </mxCell>
      </root>
    </mxGraphModel>
  </diagram>
</mxfile>
